<svg width="12" height="13" viewBox="0 0 12 13" fill="none" xmlns="http://www.w3.org/2000/svg">
<g clip-path="url(#clip0_400_121)">
<path d="M7.73242 12C7.73458 11.653 7.73666 10.4486 7.73666 9.97169C7.73666 9.28255 7.50924 8.83163 7.25418 8.60338C8.83763 8.42024 10.5 7.79599 10.5 4.9565C10.5 4.14971 10.2254 3.48971 9.76935 2.9733C9.84238 2.7863 10.0862 2.03459 9.69847 1.01708C9.69847 1.01708 9.10275 0.81849 7.74513 1.77549C7.17698 1.61101 6.56955 1.52963 5.96543 1.52636C5.36123 1.52963 4.75387 1.61109 4.18565 1.77549C2.82803 0.81849 2.23238 1.01708 2.23238 1.01708C1.84461 2.03459 2.08848 2.7863 2.16151 2.9733C1.70545 3.48971 1.43085 4.14971 1.43085 4.9565C1.43085 7.79599 3.09315 8.42024 4.6766 8.60338C4.42161 8.83163 4.19412 9.28255 4.19412 9.97169C4.19412 10.4486 4.19628 11.653 4.19836 12M1 9.02702C1.71371 9.07927 2.12524 9.75057 2.12524 9.75057C2.7596 10.8802 3.78962 10.5535 4.19441 10.3649" stroke="black" stroke-linecap="round" stroke-linejoin="round"/>
</g>
<defs>
<clipPath id="clip0_400_121">
<rect width="12" height="12" fill="white" transform="translate(0 0.5)"/>
</clipPath>
</defs>
</svg>
