<svg width="96" height="96" viewBox="0 0 96 96" fill="none" xmlns="http://www.w3.org/2000/svg">
<path d="M30 88C26.1333 88 22.8333 86.6333 20.1 83.9C17.3667 81.1667 16 77.8667 16 74V22C16 18.1333 17.3667 14.8333 20.1 12.1C22.8333 9.36667 26.1333 8 30 8H80V68C78.3333 68 76.9167 68.5833 75.75 69.75C74.5833 70.9167 74 72.3333 74 74C74 75.6667 74.5833 77.0833 75.75 78.25C76.9167 79.4167 78.3333 80 80 80V88H30ZM24 61.3C24.9333 60.8333 25.9 60.5 26.9 60.3C27.9 60.1 28.9333 60 30 60H32V16H30C28.3333 16 26.9167 16.5833 25.75 17.75C24.5833 18.9167 24 20.3333 24 22V61.3ZM40 60H72V16H40V60ZM30 80H67.3C66.9 79.0667 66.5833 78.1167 66.35 77.15C66.1167 76.1833 66 75.1333 66 74C66 72.9333 66.1 71.9 66.3 70.9C66.5 69.9 66.8333 68.9333 67.3 68H30C28.2667 68 26.8333 68.5833 25.7 69.75C24.5667 70.9167 24 72.3333 24 74C24 75.7333 24.5667 77.1667 25.7 78.3C26.8333 79.4333 28.2667 80 30 80Z" fill="white"/>
</svg>
