<svg width="96" height="96" viewBox="0 0 96 96" fill="none" xmlns="http://www.w3.org/2000/svg">
<g clipPath="url(#clip0_376_180)">
<path d="M41 52C41 54.76 38.76 57 36 57C33.24 57 31 54.76 31 52C31 49.24 33.24 47 36 47C38.76 47 41 49.24 41 52ZM60 47C57.24 47 55 49.24 55 52C55 54.76 57.24 57 60 57C62.76 57 65 54.76 65 52C65 49.24 62.76 47 60 47ZM88 48C88 70.08 70.08 88 48 88C25.92 88 8 70.08 8 48C8 25.92 25.92 8 48 8C70.08 8 88 25.92 88 48ZM42.64 16.48C48.24 25.76 58.4 32 70 32C71.84 32 73.64 31.8 75.36 31.52C69.76 22.24 59.6 16 48 16C46.16 16 44.36 16.2 42.64 16.48ZM17.68 37.88C24.52 34 29.8 27.68 32.32 20.12C25.48 24 20.2 30.32 17.68 37.88ZM80 48C80 44.88 79.52 41.88 78.68 39.04C75.88 39.64 73 40 70 40C57.48 40 46.32 34.24 38.96 25.24C34.76 35.48 26.4 43.52 16 47.44C16.04 47.6 16 47.8 16 48C16 65.64 30.36 80 48 80C65.64 80 80 65.64 80 48Z" fill="white"/>
</g>
<defs>
<clipPath id="clip0_376_180">
<rect width="96" height="96" fill="white"/>
</clipPath>
</defs>
</svg>
