<svg width="96" height="96" viewBox="0 0 96 96" fill="none" xmlns="http://www.w3.org/2000/svg">
<path d="M36 84V64C31.8667 63.6667 27.8167 63.2 23.85 62.6C19.8833 62 15.9333 61.1333 12 60L14 52C19.5333 53.5333 25.1333 54.5833 30.8 55.15C36.4667 55.7167 42.2 56 48 56C53.7333 56 59.4333 55.7167 65.1 55.15C70.7667 54.5833 76.4 53.5333 82 52L84 60C80 61.1333 76.0167 62 72.05 62.6C68.0833 63.2 64.0667 63.6667 60 64V84H36ZM48 52C45.7333 52 43.8333 51.2333 42.3 49.7C40.7667 48.1667 40 46.2667 40 44C40 41.8 40.7667 39.9167 42.3 38.35C43.8333 36.7833 45.7333 36 48 36C50.2 36 52.0833 36.7833 53.65 38.35C55.2167 39.9167 56 41.8 56 44C56 46.2667 55.2167 48.1667 53.65 49.7C52.0833 51.2333 50.2 52 48 52ZM18 40C16.2667 40 14.8333 39.4333 13.7 38.3C12.5667 37.1667 12 35.7333 12 34C12 32.3333 12.5667 30.9167 13.7 29.75C14.8333 28.5833 16.2667 28 18 28C19.6667 28 21.0833 28.5833 22.25 29.75C23.4167 30.9167 24 32.3333 24 34C24 35.7333 23.4167 37.1667 22.25 38.3C21.0833 39.4333 19.6667 40 18 40ZM78 40C76.2667 40 74.8333 39.4333 73.7 38.3C72.5667 37.1667 72 35.7333 72 34C72 32.3333 72.5667 30.9167 73.7 29.75C74.8333 28.5833 76.2667 28 78 28C79.6667 28 81.0833 28.5833 82.25 29.75C83.4167 30.9167 84 32.3333 84 34C84 35.7333 83.4167 37.1667 82.25 38.3C81.0833 39.4333 79.6667 40 78 40ZM29 25C27.2667 25 25.8333 24.4333 24.7 23.3C23.5667 22.1667 23 20.7333 23 19C23 17.3333 23.5667 15.9167 24.7 14.75C25.8333 13.5833 27.2667 13 29 13C30.6667 13 32.0833 13.5833 33.25 14.75C34.4167 15.9167 35 17.3333 35 19C35 20.7333 34.4167 22.1667 33.25 23.3C32.0833 24.4333 30.6667 25 29 25ZM67 25C65.2667 25 63.8333 24.4333 62.7 23.3C61.5667 22.1667 61 20.7333 61 19C61 17.3333 61.5667 15.9167 62.7 14.75C63.8333 13.5833 65.2667 13 67 13C68.6667 13 70.0833 13.5833 71.25 14.75C72.4167 15.9167 73 17.3333 73 19C73 20.7333 72.4167 22.1667 71.25 23.3C70.0833 24.4333 68.6667 25 67 25ZM48 20C46.2667 20 44.8333 19.4333 43.7 18.3C42.5667 17.1667 42 15.7333 42 14C42 12.3333 42.5667 10.9167 43.7 9.75C44.8333 8.58333 46.2667 8 48 8C49.6667 8 51.0833 8.58333 52.25 9.75C53.4167 10.9167 54 12.3333 54 14C54 15.7333 53.4167 17.1667 52.25 18.3C51.0833 19.4333 49.6667 20 48 20Z" fill="white"/>
</svg>
