<svg width="37" height="36" viewBox="0 0 37 36" fill="none" xmlns="http://www.w3.org/2000/svg">
<path d="M8.05029 12.1356C8.05843 12.0941 8.06937 12.071 8.08828 12.0379C10.0898 10.8805 12.0836 9.73353 14.0769 8.58576C15.5518 7.73651 17.0261 6.88628 18.5094 6.02609C18.5357 6.01681 18.5532 6.01792 18.5839 6.01905C19.452 6.51587 20.3056 7.01499 21.1622 7.509C23.7565 9.00524 26.352 10.4995 28.9603 11.9981C28.9995 12.0323 29.0254 12.0629 29.0565 12.1046C29.0597 12.1554 29.0559 12.1951 29.0559 12.2348C29.056 16.1826 29.0564 20.1305 29.0594 24.0968C29.052 24.1336 29.042 24.1519 29.0274 24.1796C28.0659 24.7366 27.1078 25.2822 26.1524 25.8323C23.6653 27.2646 21.1793 28.6989 18.6929 30.1324C18.6642 30.149 18.6361 30.1668 18.5895 30.193C18.5533 30.2014 18.5353 30.2009 18.5173 30.2004C17.5342 29.6307 16.5519 29.0592 15.5676 28.4914C13.0862 27.0601 10.6038 25.6304 8.10824 24.1963C8.08234 24.1733 8.07 24.154 8.05257 24.1243C8.0498 24.0744 8.05416 24.0347 8.05416 23.9951C8.05402 20.048 8.05355 16.101 8.05029 12.1356ZM21.8819 20.8492C21.8824 19.7666 21.8862 18.684 21.88 17.6014C21.8791 17.4513 21.9228 17.364 22.0494 17.2792C23.303 16.4394 24.5518 15.5924 25.8016 14.7467C25.841 14.7201 25.876 14.6868 25.9253 14.6466C24.5071 14.6466 23.114 14.6466 21.7063 14.6466C21.7063 16.7445 21.7063 18.8277 21.7063 20.921C19.6002 20.921 17.5089 20.921 15.3967 20.921C15.3967 18.8219 15.3967 16.7344 15.3967 14.6462C13.985 14.6462 12.5942 14.6462 11.1648 14.6462C11.2496 14.7071 11.3014 14.7461 11.355 14.7823C12.5832 15.6123 13.8099 16.4445 15.0422 17.2684C15.1762 17.358 15.219 17.453 15.2181 17.6083C15.2118 18.6577 15.2168 19.7071 15.2122 20.7565C15.2116 20.8817 15.2466 20.9645 15.3483 21.0408C16.3744 21.811 17.3987 22.5837 18.4188 23.3617C18.5254 23.443 18.5913 23.4347 18.6912 23.3583C19.4198 22.801 20.154 22.2509 20.8837 21.6949C21.215 21.4424 21.5402 21.1818 21.8779 20.9064C21.8767 20.8996 21.8754 20.8927 21.8819 20.8492Z" fill="white"/>
<path d="M18.5043 6.01922C18.0364 5.9128 17.5696 5.80112 17.1003 5.70097C15.7124 5.40479 14.3233 5.11443 12.9353 4.81925C12.1738 4.65731 11.4133 4.49024 10.6421 4.31423C15.8811 4.30298 21.1305 4.30298 26.3986 4.30298C26.0207 4.39583 25.6254 4.49491 25.2272 4.58041C23.7874 4.88957 22.3463 5.19325 20.9062 5.50086C20.1379 5.66496 19.3705 5.83286 18.5798 6.01079C18.5394 6.02143 18.5219 6.02032 18.5043 6.01922Z" fill="#FCB041"/>
<path d="M26.6309 31.7717C26.6304 31.7042 26.6351 31.6304 26.6572 31.5622C27.0381 30.3888 27.4227 29.2164 27.8034 28.0429C28.2046 26.8064 28.6026 25.5689 29.0014 24.3317C29.0095 24.3068 29.0111 24.2798 29.0208 24.2283C29.0358 24.1846 29.0458 24.1663 29.0558 24.148C29.2671 23.9295 29.4838 23.7158 29.6887 23.4914C30.1704 22.9636 30.6476 22.4317 31.1245 21.8996C31.7823 21.1656 32.4371 20.4289 33.0953 19.6952C33.4797 19.2666 33.8675 18.8409 34.2555 18.4156C34.2902 18.3776 34.338 18.3516 34.3933 18.3186C34.1153 18.8307 33.8268 19.346 33.5316 19.8575C31.8008 22.8569 30.0689 25.8558 28.3362 28.8541C27.7742 29.8265 27.2083 30.7968 26.6309 31.7717Z" fill="#FCB041"/>
<path d="M34.4119 17.9435C34.2629 17.8141 34.1044 17.6781 33.9637 17.5256C33.6228 17.1557 33.29 16.7782 32.9542 16.4035C32.2826 15.6542 31.6115 14.9044 30.9394 14.1555C30.6873 13.8746 30.4354 13.5934 30.1791 13.3163C29.8147 12.9223 29.4464 12.532 29.0624 12.1235C29.0191 12.0762 28.9932 12.0456 28.9673 12.0149C28.9689 11.9494 28.9885 11.8781 28.9694 11.8193C28.7005 10.9876 28.4243 10.1583 28.1538 9.32703C27.6637 7.8207 27.1759 6.31362 26.689 4.80626C26.6633 4.72662 26.6547 4.64144 26.6489 4.55029C26.9962 5.1138 27.3363 5.68376 27.6686 6.25824C29.9048 10.1244 32.1393 13.9915 34.3743 17.8584C34.3875 17.8814 34.3985 17.9057 34.4119 17.9435Z" fill="#FCB041"/>
<path d="M8.07372 24.2256C8.16018 24.5306 8.24001 24.8377 8.33475 25.1401C8.4536 25.5195 8.586 25.8946 8.71018 26.2724C8.94807 26.9961 9.18694 27.7194 9.42055 28.4445C9.72142 29.3783 10.0182 30.3135 10.315 31.2486C10.3645 31.4043 10.4053 31.5627 10.4392 31.728C10.0851 31.1527 9.73841 30.5714 9.39945 29.9856C7.83534 27.2824 6.27307 24.5782 4.71081 21.874C4.03274 20.7003 3.3563 19.5257 2.67578 18.3379C2.7217 18.3519 2.78234 18.3691 2.8184 18.4086C3.14415 18.7659 3.46585 19.1268 3.78825 19.4871C4.3359 20.099 4.88261 20.7119 5.43089 21.3233C5.6919 21.6143 5.95472 21.9038 6.21831 22.1925C6.81198 22.8427 7.40665 23.4921 8.0188 24.1546C8.04903 24.1868 8.06138 24.2062 8.07372 24.2256Z" fill="#FCB041"/>
<path d="M8.02642 12.1304C7.86749 12.2858 7.70122 12.4344 7.55115 12.5979C7.22415 12.9541 6.9059 13.3183 6.58318 13.6784C6.01721 14.31 5.4509 14.9412 4.88406 15.572C4.62713 15.858 4.36934 16.1431 4.11062 16.4274C3.66441 16.9178 3.21735 17.4073 2.76978 17.8964C2.74883 17.9193 2.7195 17.9346 2.67969 17.9523C3.10783 17.1788 3.54817 16.4051 3.99327 15.6341C5.65784 12.7507 7.32377 9.86805 8.98966 6.9854C9.45847 6.17416 9.92887 5.36384 10.4097 4.54614C10.4216 4.5978 10.4379 4.66145 10.4208 4.7143C10.0331 5.91049 9.63986 7.10485 9.25179 8.3009C8.86556 9.49127 8.48368 10.6831 8.10087 11.8745C8.08694 11.9179 8.08333 11.9646 8.06709 12.0354C8.04833 12.0842 8.03737 12.1073 8.02642 12.1304Z" fill="#FCB041"/>
<path d="M18.4863 30.2492C18.5218 30.2434 18.5397 30.2439 18.5667 30.2452C18.8685 30.3157 19.1603 30.3896 19.4542 30.4539C20.0348 30.5809 20.6163 30.7033 21.1978 30.8263C22.4441 31.09 23.6908 31.3525 24.9371 31.6165C25.3309 31.6999 25.7239 31.7868 26.1276 31.8834C26.0688 31.908 25.9997 31.9326 25.9306 31.9327C21.0045 31.9345 16.0783 31.9344 11.1522 31.9336C11.0931 31.9336 11.0341 31.9235 10.9634 31.9061C11.4141 31.7885 11.8755 31.6784 12.3391 31.5778C13.3282 31.3634 14.3183 31.1533 15.3082 30.9424C16.3242 30.7261 17.3405 30.5112 18.3565 30.2948C18.395 30.2866 18.4314 30.2687 18.4863 30.2492Z" fill="#FCB041"/>
<path d="M26.5225 4.30298C26.5764 4.37372 26.6153 4.44447 26.6462 4.53698C26.6548 4.64136 26.6633 4.72654 26.689 4.80618C27.176 6.31355 27.6638 7.82062 28.1539 9.32696C28.4243 10.1582 28.7005 10.9876 28.9695 11.8193C28.9885 11.8781 28.9689 11.9493 28.9541 12.0112C26.3439 10.5102 23.7466 9.01356 21.1505 7.51491C20.2933 7.02011 19.4391 6.52018 18.5933 6.01082C19.3708 5.83286 20.1382 5.66496 20.9065 5.50086C22.3466 5.19325 23.7876 4.88957 25.2275 4.58041C25.6257 4.49491 26.021 4.39583 26.4176 4.30298C26.4476 4.30298 26.4776 4.30298 26.5225 4.30298Z" fill="#F7941E"/>
<path d="M10.4211 4.5393C10.4538 4.46995 10.4865 4.40059 10.5157 4.31712C10.5421 4.30301 10.5721 4.30301 10.6274 4.31427C11.4136 4.49028 12.174 4.65735 12.9356 4.81929C14.3236 5.11446 15.7127 5.40482 17.1006 5.701C17.5699 5.80115 18.0367 5.91284 18.4959 6.02965C17.0115 6.89122 15.5361 7.74283 14.0602 8.59345C12.0655 9.74306 10.0703 10.8919 8.0752 12.0255C8.08346 11.9647 8.08707 11.918 8.10101 11.8746C8.48382 10.6832 8.86569 9.49138 9.25192 8.30101C9.63999 7.10496 10.0333 5.9106 10.4209 4.71441C10.438 4.66156 10.4218 4.59792 10.4211 4.5393Z" fill="#F7941E"/>
<path d="M2.55957 18.092C2.5885 18.0415 2.61742 18.0044 2.67035 17.9603C2.71978 17.9346 2.74911 17.9194 2.77006 17.8965C3.21763 17.4074 3.66469 16.9178 4.1109 16.4275C4.36962 16.1432 4.62741 15.858 4.88434 15.5721C5.45118 14.9413 6.01749 14.31 6.58346 13.6785C6.90618 13.3183 7.22443 12.9541 7.55143 12.5979C7.7015 12.4345 7.86777 12.2858 8.02952 12.1489C8.03278 16.1208 8.03325 20.0741 8.03338 24.0275C8.03339 24.0672 8.02903 24.107 8.01391 24.1442C7.40685 23.492 6.81219 22.8426 6.21852 22.1924C5.95493 21.9036 5.6921 21.6142 5.4311 21.3232C4.88281 20.7118 4.33611 20.0989 3.78846 19.4869C3.46606 19.1267 3.14436 18.7658 2.81861 18.4085C2.78254 18.369 2.7219 18.3518 2.67266 18.3242C2.67266 18.3242 2.67586 18.3188 2.67347 18.312C2.66485 18.2927 2.6554 18.2836 2.64273 18.2779C2.62089 18.2437 2.59905 18.2095 2.56839 18.1669C2.55957 18.1408 2.55957 18.1231 2.55957 18.092Z" fill="#F7941E"/>
<path d="M34.4134 17.9576C34.4457 18.0063 34.4779 18.0549 34.5203 18.1111C34.5303 18.1186 34.5303 18.1386 34.5303 18.1486C34.4949 18.205 34.4595 18.2515 34.402 18.309C34.3381 18.3516 34.2903 18.3776 34.2556 18.4156C33.8676 18.841 33.4798 19.2666 33.0953 19.6952C32.4372 20.4289 31.7824 21.1656 31.1246 21.8996C30.6477 22.4317 30.1705 22.9636 29.6888 23.4914C29.4839 23.7158 29.2672 23.9295 29.0533 24.1294C29.0503 20.1567 29.0499 16.2025 29.0498 12.2483C29.0498 12.2086 29.0536 12.1688 29.0678 12.1345C29.4465 12.5319 29.8149 12.9222 30.1793 13.3162C30.4356 13.5933 30.6875 13.8745 30.9396 14.1554C31.6117 14.9043 32.2827 15.6541 32.9543 16.4034C33.2901 16.7781 33.6229 17.1555 33.9639 17.5255C34.1045 17.678 34.263 17.814 34.4134 17.9576Z" fill="#F7941E"/>
<path d="M26.5483 31.9262C26.4158 31.9214 26.2936 31.9082 26.1443 31.8836C25.7239 31.7868 25.3308 31.7 24.9371 31.6166C23.6908 31.3525 22.4441 31.0901 21.1977 30.8264C20.6163 30.7033 20.0347 30.581 19.4542 30.454C19.1603 30.3897 18.8685 30.3157 18.585 30.2363C18.6226 30.2093 18.6507 30.1915 18.6795 30.1749C21.1676 28.739 23.6554 27.3024 26.1442 25.8678C27.1003 25.3168 28.059 24.7703 29.0162 24.2378C29.0112 24.2799 29.0095 24.3069 29.0015 24.3318C28.6026 25.569 28.2046 26.8065 27.8034 28.043C27.4227 29.2165 27.0381 30.3888 26.6572 31.5623C26.6351 31.6305 26.6304 31.7042 26.6176 31.7754C26.598 31.8229 26.5783 31.8703 26.5483 31.9262Z" fill="#F7941E"/>
<path d="M10.9517 31.8943C10.828 31.9081 10.7043 31.922 10.5631 31.937C10.5084 31.8795 10.4712 31.8207 10.4422 31.741C10.4054 31.5627 10.3646 31.4043 10.3151 31.2485C10.0183 30.3134 9.72152 29.3783 9.42065 28.4445C9.18703 27.7194 8.94817 26.9961 8.71027 26.2724C8.5861 25.8946 8.4537 25.5195 8.33485 25.1401C8.24011 24.8377 8.16027 24.5306 8.0874 24.2292C10.5847 25.6656 13.0688 27.0976 15.552 28.5313C16.537 29.1 17.5199 29.6723 18.4863 30.2493C18.4314 30.2689 18.395 30.2867 18.3565 30.2949C17.3405 30.5113 16.3242 30.7262 15.3082 30.9426C14.3183 31.1534 13.3282 31.3635 12.3391 31.578C11.8755 31.6785 11.4141 31.7886 10.9517 31.8943Z" fill="#F7941E"/>
<path d="M21.8255 20.9586C21.4972 21.2117 21.1719 21.4686 20.8403 21.7174C20.11 22.2652 19.3753 22.8072 18.646 23.3563C18.5461 23.4316 18.4801 23.4398 18.3734 23.3597C17.3525 22.5931 16.3274 21.8317 15.3005 21.0728C15.1988 20.9976 15.1637 20.916 15.1643 20.7927C15.169 19.7587 15.1639 18.7246 15.1702 17.6906C15.1712 17.5376 15.1283 17.444 14.9942 17.3557C13.761 16.5438 12.5332 15.7239 11.3041 14.9061C11.2504 14.8704 11.1986 14.8319 11.1138 14.772C12.5443 14.772 13.9361 14.772 15.3489 14.772C15.3489 16.8295 15.3489 18.8864 15.3489 20.9547C17.4628 20.9547 19.5558 20.9547 21.6635 20.9547C21.6635 18.8922 21.6635 16.8395 21.6635 14.7723C23.0723 14.7723 24.4665 14.7723 25.8858 14.7723C25.8364 14.8119 25.8015 14.8447 25.762 14.871C24.5113 15.7042 23.2615 16.5389 22.0069 17.3664C21.8802 17.4499 21.8365 17.5359 21.8373 17.6838C21.8435 18.7505 21.8398 19.8173 21.8287 20.9051C21.8151 20.9297 21.8085 20.9351 21.8093 20.9366C21.8137 20.9444 21.8199 20.9513 21.8255 20.9586Z" fill="#F7941E"/>
</svg>
