<svg width="37" height="36" viewBox="0 0 37 36" fill="none" xmlns="http://www.w3.org/2000/svg">
<path d="M25.9165 16.234C26.0227 16.7951 25.6469 17.1051 25.3282 17.4242C25.062 17.6907 24.7173 17.8474 24.3572 17.9723C24.1003 18.0614 23.9436 17.9865 23.8259 17.7635C23.7604 17.6392 23.6819 17.5211 23.6245 17.3932C23.2235 16.4998 22.6084 15.8142 21.7307 15.3582C21.2896 15.129 20.8877 14.8318 20.5715 14.4373C20.42 14.2483 20.2131 14.2888 20.0248 14.3161C18.7749 14.4976 17.6108 14.8998 16.5719 15.6422C15.7675 16.217 15.1486 16.9317 14.7407 17.8365C13.9383 19.616 14.6722 21.5304 16.4652 22.3022C16.4996 22.317 16.5368 22.326 16.5696 22.3435C16.6682 22.3964 16.7897 22.4428 16.7461 22.5889C16.707 22.7203 16.5886 22.7004 16.4863 22.6919C16.1112 22.6605 15.7501 22.5593 15.3904 22.4578C14.1558 22.1091 13.0617 21.5171 12.2161 20.5336C11.3544 19.5315 10.9606 18.3527 11.0014 17.0356C11.0838 14.3736 12.2851 12.3559 14.5392 10.9558C15.004 10.667 15.5321 10.5242 16.0715 10.3352C15.8824 10.1363 15.6445 10.0444 15.4545 9.88954C15.2878 9.75365 15.1114 9.62938 14.9479 9.48982C14.8189 9.37969 14.7941 9.236 14.8726 9.08287C14.9546 8.92294 15.1075 8.96635 15.2204 9.00155C15.941 9.22614 16.6977 9.22302 17.4312 9.36382C17.5547 9.38751 17.6889 9.403 17.8461 9.33517C17.6738 9.09325 17.506 8.86241 17.3437 8.62777C17.2534 8.49722 17.1595 8.3665 17.0909 8.22443C17.0316 8.10166 16.9564 7.94221 17.1149 7.84568C17.2564 7.75949 17.4123 7.77128 17.5533 7.89611C18.224 8.4901 18.9913 8.93929 19.7693 9.37448C20.1126 9.5665 20.4804 9.58461 20.8545 9.59898C21.6143 9.62818 22.3642 9.71613 23.0765 10.0024C23.6539 10.2344 24.1217 10.5874 24.3418 11.1995C24.3815 11.3102 24.4514 11.3959 24.557 11.4483C25.106 11.7209 25.6656 11.9538 26.298 11.922C26.4945 11.9122 26.6859 11.8988 26.877 11.8322C27.2176 11.7135 27.4732 11.8767 27.5886 12.2141C27.8631 13.0166 27.7358 13.7822 27.4096 14.5336C27.2382 14.9283 26.8949 15.0263 26.58 14.7569C25.7993 14.089 24.8577 13.8408 23.8755 13.6898C23.7648 13.6727 23.6545 13.6512 23.5433 13.6395C23.3237 13.6164 23.2066 13.7367 23.2869 13.9405C23.7011 14.9906 24.3286 15.825 25.5142 16.0749C25.6494 16.1034 25.7958 16.1079 25.9165 16.234ZM21.3203 11.2768C21.6331 11.7491 22.0716 11.8957 22.6191 11.6891C22.1866 11.3052 21.7411 10.9975 21.1429 10.9637C21.1523 11.0986 21.255 11.1543 21.3203 11.2768Z" fill="#D33838"/>
<path d="M25.1735 20.5414C26.2244 20.809 27.2439 21.0899 28.0961 21.7711C28.6586 22.2208 29.0882 22.7613 29.2637 23.473C29.3326 23.7524 29.2724 23.8049 28.9977 23.7015C28.4968 23.5131 27.986 23.3661 27.4581 23.2777C27.3852 23.2656 27.3144 23.2365 27.2204 23.2887C27.3803 23.5515 27.5627 23.7999 27.685 24.0818C28.0852 25.0037 28.0659 25.9407 27.6605 26.8359C27.0183 28.2541 25.8873 29.1746 24.4658 29.7597C24.4313 29.7739 24.3941 29.7815 24.3581 29.7918C24.2693 29.8174 24.1695 29.8687 24.1018 29.7701C24.0356 29.6738 24.1131 29.5893 24.1662 29.5167C24.3101 29.3203 24.4602 29.1284 24.6109 28.9373C24.8863 28.5883 25.1031 28.2086 25.2326 27.7813C25.5614 26.6962 25.3466 25.7328 24.5951 24.8838C24.0213 24.2355 23.3073 23.7746 22.5727 23.3368C21.3899 22.6318 20.1421 22.042 18.9842 21.2923C18.2695 20.8294 17.6616 20.2868 17.3487 19.4635C16.7435 17.8714 17.9524 16.4403 19.475 16.3548C19.8298 16.3349 20.1881 16.33 20.5295 16.4631C20.6169 16.4972 20.7221 16.5272 20.7346 16.6323C20.7485 16.7489 20.6302 16.775 20.5539 16.8212C19.6974 17.3398 19.6058 18.1135 20.3094 18.8175C20.8843 19.3929 21.625 19.6312 22.3762 19.8352C23.2966 20.0853 24.226 20.3026 25.1735 20.5414Z" fill="#D33838"/>
<path d="M7.16922 29.4431C4.99931 27.1247 3.62674 24.4212 3.02965 21.3243C2.84669 20.3754 2.73968 19.4107 2.74967 18.4497C2.77925 15.6019 3.43313 12.9055 4.85739 10.4176C5.76389 8.83417 6.8858 7.4262 8.27455 6.23744C8.5378 6.0121 8.60782 6.0313 8.84443 6.2969C8.96332 6.43037 8.96045 6.51994 8.82652 6.64627C8.40392 7.0449 7.97911 7.44298 7.58165 7.86615C5.6432 9.92999 4.39155 12.357 3.78428 15.1191C3.48494 16.4806 3.36131 17.8617 3.45362 19.2497C3.60065 21.4607 4.16168 23.5649 5.20616 25.5308C6.56207 28.083 8.46456 30.1201 10.946 31.6043C12.6767 32.6394 14.5336 33.3474 16.5388 33.6182C21.2648 34.2567 25.4603 33.0439 29.0486 29.8969C31.5611 27.6933 33.1656 24.9218 33.8914 21.6528C34.2641 19.9741 34.3274 18.2803 34.1327 16.5725C33.9213 14.7185 33.386 12.9655 32.5297 11.31C31.7435 9.78997 30.7393 8.4355 29.4653 7.28511C29.2435 7.08485 29.0529 6.85012 28.8459 6.63332C28.6497 6.42792 28.842 6.32243 28.9547 6.19524C29.0675 6.06786 29.1649 6.01605 29.3268 6.15837C32.1877 8.6734 33.9843 11.7882 34.6709 15.544C34.9155 16.8821 34.955 18.2308 34.8659 19.5749C34.6605 22.6723 33.603 25.4761 31.7491 27.9635C29.6214 30.8184 26.8482 32.7773 23.4347 33.8116C22.2014 34.1854 20.9424 34.4118 19.6476 34.3894C18.7486 34.3738 17.8494 34.4226 16.9504 34.3404C15.3874 34.1976 13.8975 33.7835 12.4628 33.1631C10.4487 32.2922 8.69342 31.0481 7.16922 29.4431Z" fill="#D33838"/>
<path d="M9.45646 24.0018C8.96074 23.0115 8.68877 21.9716 8.47895 20.9133C8.45898 20.8126 8.37088 20.6504 8.55184 20.6032C8.71355 20.561 8.74208 20.7191 8.79224 20.8243C9.25029 21.7855 9.76634 22.7295 10.5234 23.4724C12.1514 25.0698 14.0452 26.2232 16.3383 26.618C17.247 26.7745 18.1269 26.6923 18.9799 26.3447C19.1259 26.2852 19.2709 26.2091 19.3957 26.1136C20.1791 25.5137 20.2213 24.74 19.519 23.9953C19.3895 23.8581 19.2386 23.748 19.0834 23.6416C18.9853 23.5743 18.8483 23.4973 18.9061 23.3582C18.9693 23.2063 19.1144 23.2819 19.2274 23.3103C20.0385 23.5145 20.7817 23.867 21.43 24.3934C22.0143 24.8678 22.4772 25.4418 22.6735 26.1897C23.1036 27.828 22.2424 29.384 20.6183 29.8835C19.4012 30.2578 18.1675 30.2058 16.9592 29.8801C13.6418 28.986 11.1653 26.9949 9.45646 24.0018Z" fill="#D33838"/>
<path d="M14.2031 5.66651C13.726 5.30515 13.2971 4.91965 12.8445 4.50151C13.0563 5.14715 13.2595 5.757 13.4548 6.36941C13.4967 6.50077 13.5968 6.65666 13.3623 6.73405C13.0764 6.82841 12.9265 6.78776 12.8464 6.5506C12.5197 5.58415 12.1995 4.61548 11.874 3.64863C11.8288 3.51425 11.798 3.39835 11.9607 3.3178C12.1115 3.24312 12.2379 3.14559 12.4111 3.30668C12.9184 3.77866 13.4397 4.23561 13.9583 4.69531C14.0317 4.76039 14.0946 4.85406 14.2505 4.84247C14.3654 4.24703 14.4816 3.64468 14.5981 3.04242C14.6265 2.89574 14.669 2.75054 14.6829 2.60258C14.707 2.34687 14.8698 2.29812 15.0871 2.27398C15.323 2.24777 15.3158 2.43378 15.3588 2.55846C15.6852 3.5048 15.9964 4.45642 16.3268 5.40131C16.4093 5.63738 16.3194 5.71964 16.1146 5.78483C15.9206 5.84656 15.7941 5.86657 15.7146 5.61573C15.5208 5.0043 15.2958 4.40275 15.0653 3.74554C14.9504 4.3186 14.8533 4.83776 14.7406 5.35349C14.6556 5.74244 14.6145 5.76039 14.2031 5.66651Z" fill="#D33838"/>
<path d="M25.0768 6.75745C25.0783 6.88603 25.0261 6.92728 24.9193 6.92133C24.6224 6.90478 24.4206 6.73569 24.359 6.4401C24.3247 6.27541 24.2977 6.10916 24.2614 5.94493C24.1159 5.28646 24.1133 5.29171 23.4802 5.07922C23.3283 5.02826 23.2491 5.06467 23.2003 5.20434C23.1232 5.42508 23.0307 5.64217 22.975 5.86826C22.8852 6.23226 22.653 6.04652 22.4642 6.01478C22.2401 5.97711 22.279 5.83893 22.339 5.67933C22.6778 4.77712 23.0082 3.87178 23.3457 2.96907C23.4989 2.55928 23.6077 2.51188 24.0224 2.67179C24.4322 2.82982 24.8587 2.94968 25.2398 3.17563C25.7539 3.48046 25.9478 3.92049 25.8333 4.50541C25.7525 4.91774 25.502 5.18613 25.1182 5.33684C25.015 5.37734 24.9068 5.40493 24.7939 5.44065C24.8889 5.88057 24.9811 6.3077 25.0768 6.75745ZM24.3282 3.43487C24.2076 3.38879 24.0871 3.34272 23.9354 3.28474C23.8007 3.63229 23.6729 3.96049 23.5464 4.28923C23.5098 4.38454 23.5424 4.45878 23.6353 4.49346C23.9485 4.61042 24.2484 4.77309 24.5967 4.7713C24.9532 4.76948 25.1362 4.65313 25.2179 4.36871C25.293 4.10718 25.1859 3.84843 24.9055 3.68588C24.7372 3.58836 24.5483 3.52643 24.3282 3.43487Z" fill="#D33838"/>
<path d="M19.56 5.52357C19.0719 5.65481 18.9987 5.6028 19.0128 5.13834C19.0422 4.16609 19.0784 3.19404 19.1076 2.22179C19.1133 2.02962 19.1498 1.88617 19.3901 1.90795C19.5985 1.92683 19.7641 1.94787 19.7578 2.23869C19.7377 3.16498 19.7433 4.09182 19.7385 5.01844C19.7376 5.19891 19.724 5.37586 19.56 5.52357Z" fill="#D33838"/>
</svg>
