<svg width="64" height="64" viewBox="0 0 64 64" fill="none" xmlns="http://www.w3.org/2000/svg">
<g clip-path="url(#clip0_19_111)">
<path d="M40.931 -1.33101L39.9354 2.38458C34.3432 0.3786 25.6471 1.7966 17.3333 6.5966C9.01942 11.3966 3.44337 18.2186 2.3845 24.0646L-1.33109 23.069C-2.46033 22.7664 -3.41408 23.9945 -2.81408 25.0337L1.57259 32.6316C1.94592 33.2783 2.74733 33.493 3.39396 33.1197L10.9919 28.733C12.0311 28.133 11.8192 26.5926 10.6668 26.3033L6.2458 25.0992C6.8352 20.7868 11.5506 14.554 19.3333 10.0607C27.1159 5.56737 34.8713 4.60009 38.9007 6.24588L37.7099 10.69C37.4073 11.8193 38.6354 12.773 39.6746 12.173L47.2726 7.78634C47.9192 7.41301 48.1339 6.61161 47.7606 5.96497L43.3739 -1.63296C42.7739 -2.67219 41.2335 -2.46026 40.931 -1.33101Z" fill="white"/>
<path d="M38.7202 30.3063C37.8869 30.3563 37.1007 30.5947 36.3848 31.008L34.9761 31.8213L26.9761 17.9649C25.8694 16.0481 23.4288 15.3941 21.512 16.5008C19.5952 17.6075 18.9412 20.0481 20.0479 21.9649L34.3679 46.7679L25.4635 49.6918C24.5024 50.0004 23.7617 50.7975 23.4982 51.781C23.0918 53.3705 24.0251 54.9871 25.6279 55.4165L40.2353 59.3306C41.5831 59.6917 43.0409 59.4967 44.2649 58.79L59.0681 50.2434C61.3775 48.91 62.3441 46.1042 61.3474 43.6312L56.8557 32.4913C55.9995 30.3683 53.8633 29.015 51.5784 29.1641L38.7202 30.3063Z" fill="white"/>
</g>
<defs>
<clipPath id="clip0_19_111">
<rect width="64" height="64" fill="white"/>
</clipPath>
</defs>
</svg>
