<svg width="96" height="96" viewBox="0 0 96 96" fill="none" xmlns="http://www.w3.org/2000/svg">
<g clipPath="url(#clip0_376_169)">
<path d="M75.4 41.56L79.64 37.32C82.76 34.2 82.76 29.12 79.64 26L74 20.36C70.88 17.24 65.8 17.24 62.68 20.36L58.44 24.6L75.4 41.56ZM58.44 47.24L29.64 76H24V70.36L52.76 41.6L58.44 47.24ZM52.76 30.24L16 67.04V84H32.96L69.72 47.24L52.76 30.24ZM76 70C76 78.76 65.84 84 56 84C53.8 84 52 82.2 52 80C52 77.8 53.8 76 56 76C62.16 76 68 73.08 68 70C68 68.12 66.08 66.52 63.08 65.2L69 59.28C73.28 61.8 76 65.16 76 70ZM18.32 53.4C14.44 51.16 12 48.24 12 44C12 36.8 19.56 33.48 26.24 30.56C30.36 28.72 36 26.24 36 24C36 22.36 32.88 20 28 20C22.96 20 20.8 22.44 20.68 22.56C19.28 24.2 16.76 24.4 15.08 23.04C13.44 21.68 13.12 19.24 14.48 17.52C14.92 16.96 19.04 12 28 12C36.96 12 44 17.28 44 24C44 31.48 36.28 34.88 29.44 37.88C25.68 39.52 20 42 20 44C20 45.24 21.72 46.4 24.28 47.44L18.32 53.4Z" fill="white"/>
</g>
<defs>
<clipPath id="clip0_376_169">
<rect width="96" height="96" fill="white"/>
</clipPath>
</defs>
</svg>
