<svg width="96" height="96" viewBox="0 0 96 96" fill="none" xmlns="http://www.w3.org/2000/svg">
<path d="M41.4 79.2L42.6 73.6C42.8 72.7333 43.2167 72.0167 43.85 71.45C44.4833 70.8833 45.2667 70.5333 46.2 70.4L58.6 69.4C59.4667 69.2667 60.2667 69.4333 61 69.9C61.7333 70.3667 62.2667 71 62.6 71.8L64.2 75.6C66.8 74.0667 69.1333 72.2167 71.2 70.05C73.2667 67.8833 75 65.4667 76.4 62.8L75.2 62.2C74.4667 61.6667 73.9333 61.0167 73.6 60.25C73.2667 59.4833 73.2 58.6667 73.4 57.8L76.2 45.6C76.4 44.8 76.8167 44.1333 77.45 43.6C78.0833 43.0667 78.8 42.7333 79.6 42.6C79.2667 40.9333 78.85 39.3167 78.35 37.75C77.85 36.1833 77.2 34.6667 76.4 33.2C75.8 33.5333 75.15 33.6833 74.45 33.65C73.75 33.6167 73.1333 33.4 72.6 33L62 26.6C61.2667 26.1333 60.7333 25.5 60.4 24.7C60.0667 23.9 60 23.0667 60.2 22.2L61 18.8C58.9333 17.8667 56.8167 17.1667 54.65 16.7C52.4833 16.2333 50.2667 16 48 16C47.0667 16 46.1 16.05 45.1 16.15C44.1 16.25 43.1333 16.4 42.2 16.6L45.2 23.4C45.5333 24.2 45.6167 25.0333 45.45 25.9C45.2833 26.7667 44.8667 27.4667 44.2 28L34.8 36.2C34.1333 36.8 33.35 37.1333 32.45 37.2C31.55 37.2667 30.7333 37.0667 30 36.6L20.8 31C19.2667 33.5333 18.0833 36.25 17.25 39.15C16.4167 42.05 16 45 16 48C16 49.0667 16.1333 50.8 16.4 53.2L25.2 52.4C26.1333 52.2667 26.9833 52.4167 27.75 52.85C28.5167 53.2833 29.0667 53.9333 29.4 54.8L34.2 66.2C34.5333 67 34.6167 67.8333 34.45 68.7C34.2833 69.5667 33.8667 70.2667 33.2 70.8L29.4 74C31.2 75.3333 33.1167 76.4333 35.15 77.3C37.1833 78.1667 39.2667 78.8 41.4 79.2ZM48.6 62C47.7333 62.1333 46.9333 61.9667 46.2 61.5C45.4667 61.0333 44.9333 60.4 44.6 59.6L39.2 47.2C38.8667 46.4 38.8167 45.5667 39.05 44.7C39.2833 43.8333 39.7333 43.1333 40.4 42.6L50.6 34C51.2 33.4 51.9333 33.0667 52.8 33C53.6667 32.9333 54.4667 33.1333 55.2 33.6L66.4 40.2C67.1333 40.6667 67.7 41.3 68.1 42.1C68.5 42.9 68.6 43.7333 68.4 44.6L65.2 57.6C65 58.4667 64.6 59.1833 64 59.75C63.4 60.3167 62.6667 60.6667 61.8 60.8L48.6 62ZM48 88C42.4667 88 37.2667 86.95 32.4 84.85C27.5333 82.75 23.3 79.9 19.7 76.3C16.1 72.7 13.25 68.4667 11.15 63.6C9.05 58.7333 8 53.5333 8 48C8 42.4667 9.05 37.2667 11.15 32.4C13.25 27.5333 16.1 23.3 19.7 19.7C23.3 16.1 27.5333 13.25 32.4 11.15C37.2667 9.05 42.4667 8 48 8C53.5333 8 58.7333 9.05 63.6 11.15C68.4667 13.25 72.7 16.1 76.3 19.7C79.9 23.3 82.75 27.5333 84.85 32.4C86.95 37.2667 88 42.4667 88 48C88 53.5333 86.95 58.7333 84.85 63.6C82.75 68.4667 79.9 72.7 76.3 76.3C72.7 79.9 68.4667 82.75 63.6 84.85C58.7333 86.95 53.5333 88 48 88Z" fill="white"/>
</svg>
